<?xml version="1.0" encoding="UTF-8"?>
<svg width="240px" height="240px" viewBox="0 0 240 240" version="1.1" xmlns="http://www.w3.org/2000/svg" xmlns:xlink="http://www.w3.org/1999/xlink">
    <!-- Generator: Sketch 61.2 (89653) - https://sketch.com -->
    <title>dollar</title>
    <desc>Created with Sketch.</desc>
    <g id="dollar" stroke="none" stroke-width="1" fill="none" fill-rule="evenodd">
        <g id="bounding-box">
            <polygon id="shape" points="0 0 240 0 240 240 0 240"></polygon>
        </g>
        <path d="M133.29,202.74 L133.29,190.55 L133.29,190.55 C159.74,185.95 174.23,168.47 174.23,148 C174.23,127.3 164.19,115.65 136.82,105.99 C117.27,98.63 109.22,92.8 109.22,85.21 C109.22,78.77 114.05,72.33 129,72.33 C136.676417,72.33 142.902393,74.2349132 147.677926,78.0447396 C151.13176,80.8001332 156.165333,80.2339415 158.92073,76.7801113 C158.931625,76.7664546 158.942476,76.7527622 158.953281,76.7390344 L167.43543,65.9627814 C170.168143,62.4909719 169.568986,57.4612128 166.097177,54.7284999 C165.859398,54.5413409 165.611192,54.3678236 165.353755,54.2087846 C154.482211,47.4925731 144.844293,43.9463116 136.44,43.57 L136.44,34.6 C136.44,28.3757509 131.394249,23.33 125.17,23.33 C118.945751,23.33 113.9,28.3757509 113.9,34.6 L113.9,45.18 L113.9,45.18 C89.29,50.01 74.03,67.88 74.03,88.12 C74.03,110.43 90.82,121.93 115.43,130.21 C132.45,135.96 139.81,140.48 139.81,149.22 C139.81,158.42 131.84,162.48 118.73,162.48 C110.80742,162.48 102.825865,159.295334 94.7853348,152.926002 C91.3220231,150.182525 86.2904273,150.766069 83.5469525,154.229382 C83.48118,154.312412 83.4170631,154.396741 83.3546396,154.482317 L74.5224744,166.590327 C71.9186892,170.159851 72.7015776,175.164305 76.2711024,177.768088 C76.3878165,177.853225 76.5068154,177.935185 76.6279681,178.013878 C90.5380117,187.048896 101.912022,191.76427 110.75,192.16 L110.75,202.74 C110.75,208.964249 115.795751,214.01 122.02,214.01 C128.244249,214.01 133.29,208.964249 133.29,202.74 Z" id="$" stroke="#46AAF7" stroke-width="10" fill="#E8F7FF"></path>
    </g>
</svg>