<?xml version="1.0" encoding="UTF-8"?>
<svg width="240px" height="240px" viewBox="0 0 240 240" version="1.1" xmlns="http://www.w3.org/2000/svg" xmlns:xlink="http://www.w3.org/1999/xlink">
    <!-- Generator: Sketch 61.2 (89653) - https://sketch.com -->
    <title>wallet</title>
    <desc>Created with Sketch.</desc>
    <g id="wallet" stroke="none" stroke-width="1" fill="none" fill-rule="evenodd">
        <g id="bounding-box">
            <polygon id="shape" points="0 0 240 0 240 240 0 240"></polygon>
        </g>
        <rect id="Rectangle" stroke="#46AAF7" stroke-width="10" x="35" y="75" width="170" height="120" rx="15"></rect>
        <path d="M35,75 C35,85 35,86.6666667 35,80 C35,73.3333333 35,70 35,70 C35,61.7157288 41.7157288,55 50,55 L140,55 C148.284271,55 155,61.7157288 155,70 L155,75 L35,75 Z" id="Path" stroke="#46AAF7" stroke-width="10" fill="#E8F7FF"></path>
        <path d="M205,155 L205,115 L154,115 C142.954305,115 134,123.954305 134,135 C134,146.045695 142.954305,155 154,155 L205,155 Z" id="Rectangle" stroke="#46AAF7" stroke-width="10" fill="#E8F7FF"></path>
    </g>
</svg>